<svg width="520" height="520" viewBox="0 0 520 520" fill="none" xmlns="http://www.w3.org/2000/svg">
<path d="M264.317 1C345.426 1 406.651 23.5013 447.991 68.5039C489.33 113.507 510 177.347 510 260.027C510 342.183 489.33 406.024 447.991 451.549C406.651 496.552 345.426 519.053 264.317 519.053H60C32.3858 519.053 10 496.668 10 469.053V51C10 23.3857 32.3858 1 60 1H264.317Z" fill="url(#paint0_linear_220_38)"/>
<path d="M344.209 324.31C334.551 334.178 318.929 330.997 311.326 319.471C296.728 297.34 271.894 259.693 243.595 216.791C215.069 173.547 189.626 134.976 174.753 112.428C167.15 100.902 170.39 85.3022 183.29 80.3812C242.883 57.649 341.25 66.0872 380.911 126.213C420.569 186.334 388.765 278.787 344.209 324.31Z" fill="url(#paint1_linear_220_38)"/>
<path d="M128.227 203.016C137.889 193.153 153.511 196.34 161.108 207.869C175.697 230.007 200.514 267.665 228.795 310.578C257.302 353.835 282.728 392.417 297.592 414.972C305.19 426.5 301.943 442.099 289.04 447.015C229.438 469.721 131.075 461.24 91.4398 401.098C51.8075 340.959 83.6518 248.52 128.227 203.016Z" fill="url(#paint2_linear_220_38)"/>
<defs>
<linearGradient id="paint0_linear_220_38" x1="9.99998" y1="-67.5" x2="307" y2="704" gradientUnits="userSpaceOnUse">
<stop stop-color="#757FB6"/>
<stop offset="1" stop-color="#375568"/>
</linearGradient>
<linearGradient id="paint1_linear_220_38" x1="172" y1="-100" x2="457.426" y2="194.576" gradientUnits="userSpaceOnUse">
<stop stop-color="#507287"/>
<stop offset="1" stop-color="#AAD2B5"/>
</linearGradient>
<linearGradient id="paint2_linear_220_38" x1="172" y1="-100" x2="457.426" y2="194.576" gradientUnits="userSpaceOnUse">
<stop stop-color="#507287"/>
<stop offset="1" stop-color="#AAD2B5"/>
</linearGradient>
</defs>
</svg>
